<svg width="30" height="30" viewBox="0 0 30 30" fill="none" xmlns="http://www.w3.org/2000/svg">
<path d="M27.7532 5.17253H2.24678C1.00588 5.17253 0 6.17841 0 7.41931V22.581C0 23.8218 1.00588 24.8277 2.24678 24.8277H27.7532C28.9941 24.8277 30 23.8219 30 22.581V7.41931C30 6.17841 28.9941 5.17253 27.7532 5.17253Z" fill="#F5F5F5"/>
<path d="M0.123596 6.68448H29.8764C29.5719 5.80458 28.7366 5.17253 27.7532 5.17253H2.2468C1.26336 5.17253 0.428108 5.80458 0.123596 6.68448Z" fill="#FF4B55"/>
<path d="M30 11.2204H0V12.7322H30V11.2204Z" fill="#FF4B55"/>
<path d="M30 8.1962H0V9.70809H30V8.1962Z" fill="#FF4B55"/>
<path d="M0 15.239C0 15.5247 0.231621 15.7563 0.517266 15.7563H30V14.2444H0V15.239Z" fill="#FF4B55"/>
<path d="M30 20.2924H0V21.8043H30V20.2924Z" fill="#FF4B55"/>
<path d="M29.8764 23.3157H0.123596C0.428108 24.1956 1.26342 24.8277 2.2468 24.8277H27.7532C28.7367 24.8277 29.5719 24.1956 29.8764 23.3157Z" fill="#FF4B55"/>
<path d="M30 17.2682H0V18.7801H30V17.2682Z" fill="#FF4B55"/>
<path d="M0.517266 15.7561H13.4483C13.734 15.7561 13.9656 15.5244 13.9656 15.2388V5.68972C13.9656 5.40402 13.734 5.17245 13.4483 5.17245H2.24678C1.00588 5.17251 0 6.17839 0 7.41929V15.2388C0 15.5245 0.231621 15.7561 0.517266 15.7561Z" fill="#41479B"/>
<path d="M1.45251 6.3597L1.567 6.70306L1.92893 6.70582C1.97581 6.70623 1.9952 6.76599 1.95753 6.79382L1.66637 7.0088L1.77559 7.35386C1.78977 7.39851 1.73886 7.43554 1.70071 7.40824L1.40628 7.19783L1.11184 7.4083C1.0737 7.4356 1.0229 7.39857 1.03696 7.35392L1.14618 7.00886L0.855028 6.79388C0.817353 6.76599 0.836747 6.70623 0.883622 6.70587L1.24556 6.70312L1.36005 6.35976C1.37481 6.31523 1.43762 6.31523 1.45251 6.3597Z" fill="#F5F5F5"/>
<path d="M1.45251 8.15579L1.567 8.49914L1.92893 8.5019C1.97581 8.50231 1.9952 8.56202 1.95753 8.58991L1.66637 8.80495L1.77559 9.15C1.78977 9.19465 1.73886 9.23168 1.70071 9.20438L1.40628 8.99397L1.11184 9.20444C1.0737 9.23168 1.0229 9.19471 1.03696 9.15006L1.14618 8.805L0.855028 8.58997C0.817353 8.56207 0.836747 8.50237 0.883622 8.50196L1.24556 8.4992L1.36005 8.15584C1.37481 8.11137 1.43762 8.11137 1.45251 8.15579Z" fill="#F5F5F5"/>
<path d="M1.45251 9.95193L1.567 10.2953L1.92893 10.298C1.97581 10.2985 1.9952 10.3582 1.95753 10.386L1.66637 10.6011L1.77559 10.9461C1.78977 10.9908 1.73886 11.0278 1.70071 11.0005L1.40628 10.7901L1.11184 11.0006C1.0737 11.0278 1.0229 10.9909 1.03696 10.9462L1.14618 10.6011L0.855028 10.3861C0.817353 10.3582 0.836747 10.2985 0.883622 10.2981L1.24556 10.2953L1.36005 9.95199C1.37481 9.90745 1.43762 9.90745 1.45251 9.95193Z" fill="#F5F5F5"/>
<path d="M1.45251 11.7483L1.567 12.0916L1.92893 12.0944C1.97581 12.0948 1.9952 12.1545 1.95753 12.1824L1.66637 12.3974L1.77559 12.7425C1.78977 12.7871 1.73886 12.8242 1.70071 12.7968L1.40628 12.5864L1.11184 12.7969C1.0737 12.8242 1.0229 12.7872 1.03696 12.7425L1.14618 12.3975L0.855028 12.1824C0.817353 12.1547 0.836747 12.0948 0.883622 12.0944L1.24556 12.0917L1.36005 11.7483C1.37481 11.7038 1.43762 11.7038 1.45251 11.7483Z" fill="#F5F5F5"/>
<path d="M1.45251 13.5444L1.567 13.8877L1.92893 13.8905C1.97581 13.8909 1.9952 13.9506 1.95753 13.9785L1.66637 14.1935L1.77559 14.5386C1.78977 14.5832 1.73886 14.6202 1.70071 14.5929L1.40628 14.3825L1.11184 14.593C1.0737 14.6202 1.0229 14.5833 1.03696 14.5386L1.14618 14.1936L0.855028 13.9785C0.817353 13.9506 0.836747 13.8909 0.883622 13.8905L1.24556 13.8878L1.36005 13.5444C1.37481 13.4999 1.43762 13.4999 1.45251 13.5444Z" fill="#F5F5F5"/>
<path d="M2.84667 7.24014L2.96117 7.5835L3.3231 7.58626C3.36997 7.58667 3.38937 7.64644 3.35169 7.67427L3.06054 7.88931L3.16976 8.23437C3.18394 8.27902 3.13302 8.31605 3.09488 8.28874L2.80044 8.07827L2.50601 8.28874C2.46787 8.31599 2.41706 8.27902 2.43113 8.23437L2.54035 7.88931L2.24919 7.67427C2.21152 7.64638 2.23091 7.58667 2.27779 7.58626L2.63972 7.5835L2.75421 7.24014C2.76898 7.19573 2.83185 7.19573 2.84667 7.24014Z" fill="#F5F5F5"/>
<path d="M2.84667 9.03628L2.96117 9.37964L3.3231 9.3824C3.36997 9.38281 3.38937 9.44257 3.35169 9.47041L3.06054 9.68544L3.16976 10.0305C3.18394 10.0752 3.13302 10.1122 3.09488 10.0849L2.80044 9.87441L2.50601 10.0849C2.46787 10.1121 2.41706 10.0752 2.43113 10.0305L2.54035 9.68544L2.24919 9.47041C2.21152 9.44263 2.23091 9.38281 2.27779 9.3824L2.63972 9.37964L2.75421 9.03628C2.76898 8.99181 2.83185 8.99181 2.84667 9.03628Z" fill="#F5F5F5"/>
<path d="M2.84667 10.8326L2.96117 11.176L3.3231 11.1787C3.36997 11.1791 3.38937 11.2388 3.35169 11.2667L3.06054 11.4818L3.16976 11.8268C3.18394 11.8715 3.13302 11.9085 3.09488 11.8812L2.80044 11.6707L2.50601 11.8812C2.46787 11.9084 2.41706 11.8715 2.43113 11.8268L2.54035 11.4818L2.24919 11.2667C2.21152 11.2388 2.23091 11.1791 2.27779 11.1787L2.63972 11.176L2.75421 10.8326C2.76898 10.7881 2.83185 10.7881 2.84667 10.8326Z" fill="#F5F5F5"/>
<path d="M2.84667 12.6287L2.96117 12.9721L3.3231 12.9748C3.36997 12.9752 3.38937 13.0349 3.35169 13.0628L3.06054 13.2779L3.16976 13.6229C3.18394 13.6676 3.13302 13.7046 3.09488 13.6773L2.80044 13.4668L2.50601 13.6773C2.46787 13.7046 2.41706 13.6676 2.43113 13.6229L2.54035 13.2779L2.24919 13.0628C2.21152 13.0349 2.23091 12.9752 2.27779 12.9748L2.63972 12.9721L2.75421 12.6287C2.76898 12.5843 2.83185 12.5843 2.84667 12.6287Z" fill="#F5F5F5"/>
<path d="M4.24078 6.35957L4.35527 6.70293L4.7172 6.70569C4.76408 6.7061 4.78347 6.76586 4.7458 6.79369L4.45464 7.00867L4.56386 7.35373C4.57804 7.39838 4.52712 7.43541 4.48898 7.40811L4.19455 7.19764L3.90011 7.40811C3.86197 7.43541 3.81117 7.39838 3.82523 7.35373L3.93445 7.00867L3.6433 6.79369C3.60562 6.7658 3.62502 6.70604 3.67189 6.70569L4.03382 6.70293L4.14832 6.35957C4.16308 6.3151 4.22595 6.3151 4.24078 6.35957Z" fill="#F5F5F5"/>
<path d="M4.24078 8.15567L4.35527 8.49903L4.7172 8.50178C4.76408 8.50219 4.78347 8.5619 4.7458 8.58979L4.45464 8.80483L4.56386 9.14989C4.57804 9.19454 4.52712 9.23157 4.48898 9.20426L4.19455 8.9938L3.90011 9.20426C3.86197 9.23151 3.81117 9.19454 3.82523 9.14989L3.93445 8.80483L3.6433 8.58979C3.60562 8.5619 3.62502 8.50219 3.67189 8.50178L4.03382 8.49903L4.14832 8.15567C4.16308 8.11126 4.22595 8.11126 4.24078 8.15567Z" fill="#F5F5F5"/>
<path d="M4.24078 9.95181L4.35527 10.2952L4.7172 10.2979C4.76408 10.2983 4.78347 10.358 4.7458 10.3859L4.45464 10.601L4.56386 10.946C4.57804 10.9907 4.52712 11.0277 4.48898 11.0004L4.19455 10.7899L3.90011 11.0004C3.86197 11.0277 3.81117 10.9907 3.82523 10.946L3.93445 10.601L3.6433 10.3859C3.60562 10.358 3.62502 10.2983 3.67189 10.2979L4.03382 10.2952L4.14832 9.95181C4.16308 9.90734 4.22595 9.90734 4.24078 9.95181Z" fill="#F5F5F5"/>
<path d="M4.24078 11.7481L4.35527 12.0915L4.7172 12.0943C4.76408 12.0947 4.78347 12.1544 4.7458 12.1823L4.45464 12.3973L4.56386 12.7424C4.57804 12.787 4.52712 12.824 4.48898 12.7967L4.19455 12.5863L3.90011 12.7967C3.86197 12.824 3.81117 12.787 3.82523 12.7424L3.93445 12.3973L3.6433 12.1823C3.60562 12.1545 3.62502 12.0947 3.67189 12.0943L4.03382 12.0915L4.14832 11.7481C4.16308 11.7037 4.22595 11.7037 4.24078 11.7481Z" fill="#F5F5F5"/>
<path d="M4.24078 13.5442L4.35527 13.8876L4.7172 13.8903C4.76408 13.8908 4.78347 13.9505 4.7458 13.9784L4.45464 14.1934L4.56386 14.5385C4.57804 14.5831 4.52712 14.6201 4.48898 14.5928L4.19455 14.3824L3.90011 14.5928C3.86197 14.6201 3.81117 14.5831 3.82523 14.5385L3.93445 14.1934L3.6433 13.9784C3.60562 13.9505 3.62502 13.8908 3.67189 13.8903L4.03382 13.8876L4.14832 13.5442C4.16308 13.4998 4.22595 13.4998 4.24078 13.5442Z" fill="#F5F5F5"/>
<path d="M5.63494 7.24014L5.74944 7.5835L6.11137 7.58626C6.15824 7.58667 6.17764 7.64644 6.13996 7.67427L5.84881 7.88931L5.95803 8.23437C5.97221 8.27902 5.92129 8.31605 5.88315 8.28874L5.58871 8.07827L5.29428 8.28874C5.25613 8.31599 5.20533 8.27902 5.2194 8.23437L5.32862 7.88931L5.03746 7.67427C4.99979 7.64638 5.01918 7.58667 5.06606 7.58626L5.42799 7.5835L5.54248 7.24014C5.55719 7.19573 5.62012 7.19573 5.63494 7.24014Z" fill="#F5F5F5"/>
<path d="M5.63494 9.03628L5.74944 9.37964L6.11137 9.3824C6.15824 9.38281 6.17764 9.44257 6.13996 9.47041L5.84881 9.68544L5.95803 10.0305C5.97221 10.0752 5.92129 10.1122 5.88315 10.0849L5.58871 9.87441L5.29428 10.0849C5.25613 10.1121 5.20533 10.0752 5.2194 10.0305L5.32862 9.68544L5.03746 9.47041C4.99979 9.44263 5.01918 9.38281 5.06606 9.3824L5.42799 9.37964L5.54248 9.03628C5.55719 8.99181 5.62012 8.99181 5.63494 9.03628Z" fill="#F5F5F5"/>
<path d="M5.63494 10.8326L5.74944 11.176L6.11137 11.1787C6.15824 11.1791 6.17764 11.2388 6.13996 11.2667L5.84881 11.4818L5.95803 11.8268C5.97221 11.8715 5.92129 11.9085 5.88315 11.8812L5.58871 11.6707L5.29428 11.8812C5.25613 11.9084 5.20533 11.8715 5.2194 11.8268L5.32862 11.4818L5.03746 11.2667C4.99979 11.2388 5.01918 11.1791 5.06606 11.1787L5.42799 11.176L5.54248 10.8326C5.55719 10.7881 5.62012 10.7881 5.63494 10.8326Z" fill="#F5F5F5"/>
<path d="M5.63494 12.6287L5.74944 12.9721L6.11137 12.9748C6.15824 12.9752 6.17764 13.0349 6.13996 13.0628L5.84881 13.2779L5.95803 13.6229C5.97221 13.6676 5.92129 13.7046 5.88315 13.6773L5.58871 13.4668L5.29428 13.6773C5.25613 13.7046 5.20533 13.6676 5.2194 13.6229L5.32862 13.2779L5.03746 13.0628C4.99979 13.0349 5.01918 12.9752 5.06606 12.9748L5.42799 12.9721L5.54248 12.6287C5.55719 12.5843 5.62012 12.5843 5.63494 12.6287Z" fill="#F5F5F5"/>
<path d="M7.02905 6.3597L7.14354 6.70306L7.50547 6.70582C7.55235 6.70623 7.57174 6.76599 7.53407 6.79382L7.24291 7.0088L7.35213 7.35386C7.36631 7.39851 7.31539 7.43554 7.27725 7.40824L6.98276 7.19783L6.68832 7.4083C6.65018 7.4356 6.59938 7.39857 6.61344 7.35392L6.72266 7.00886L6.43151 6.79388C6.39383 6.76599 6.41322 6.70623 6.4601 6.70587L6.82203 6.70312L6.93653 6.35976C6.95135 6.31523 7.01422 6.31523 7.02905 6.3597Z" fill="#F5F5F5"/>
<path d="M7.02905 8.15567L7.14354 8.49903L7.50547 8.50178C7.55235 8.50219 7.57174 8.5619 7.53407 8.58979L7.24291 8.80483L7.35213 9.14989C7.36631 9.19454 7.31539 9.23157 7.27725 9.20426L6.98276 8.9938L6.68832 9.20426C6.65018 9.23151 6.59938 9.19454 6.61344 9.14989L6.72266 8.80483L6.43151 8.58979C6.39383 8.5619 6.41322 8.50219 6.4601 8.50178L6.82203 8.49903L6.93653 8.15567C6.95135 8.11126 7.01422 8.11126 7.02905 8.15567Z" fill="#F5F5F5"/>
<path d="M7.02905 9.9517L7.14354 10.2951L7.50547 10.2978C7.55235 10.2982 7.57174 10.3579 7.53407 10.3858L7.24291 10.6009L7.35213 10.9459C7.36631 10.9906 7.31539 11.0276 7.27725 11.0003L6.98276 10.7898L6.68832 11.0002C6.65018 11.0275 6.59938 10.9905 6.61344 10.9459L6.72266 10.6008L6.43151 10.3858C6.39383 10.3579 6.41322 10.2982 6.4601 10.2978L6.82203 10.295L6.93653 9.95164C6.95135 9.90722 7.01422 9.90722 7.02905 9.9517Z" fill="#F5F5F5"/>
<path d="M7.02905 11.7481L7.14354 12.0915L7.50547 12.0943C7.55235 12.0947 7.57174 12.1544 7.53407 12.1823L7.24291 12.3973L7.35213 12.7424C7.36631 12.787 7.31539 12.824 7.27725 12.7967L6.98276 12.5863L6.68832 12.7967C6.65018 12.824 6.59938 12.787 6.61344 12.7424L6.72266 12.3973L6.43151 12.1823C6.39383 12.1545 6.41322 12.0947 6.4601 12.0943L6.82203 12.0915L6.93653 11.7481C6.95135 11.7037 7.01422 11.7037 7.02905 11.7481Z" fill="#F5F5F5"/>
<path d="M7.02905 13.5442L7.14354 13.8876L7.50547 13.8903C7.55235 13.8908 7.57174 13.9505 7.53407 13.9784L7.24291 14.1934L7.35213 14.5385C7.36631 14.5831 7.31539 14.6201 7.27725 14.5928L6.98276 14.3824L6.68832 14.5928C6.65018 14.6201 6.59938 14.5831 6.61344 14.5385L6.72266 14.1934L6.43151 13.9784C6.39383 13.9505 6.41322 13.8908 6.4601 13.8903L6.82203 13.8876L6.93653 13.5442C6.95135 13.4998 7.01422 13.4998 7.02905 13.5442Z" fill="#F5F5F5"/>
<path d="M8.42315 7.24014L8.53764 7.5835L8.89957 7.58626C8.94644 7.58667 8.96584 7.64644 8.92816 7.67427L8.63701 7.88931L8.74623 8.23437C8.76041 8.27902 8.70949 8.31605 8.67135 8.28874L8.37692 8.07827L8.08248 8.28874C8.04434 8.31599 7.99354 8.27902 8.0076 8.23437L8.11682 7.88931L7.82567 7.67427C7.78799 7.64638 7.80739 7.58667 7.85426 7.58626L8.2162 7.5835L8.33069 7.24014C8.34551 7.19573 8.40832 7.19573 8.42315 7.24014Z" fill="#F5F5F5"/>
<path d="M8.42315 9.03628L8.53764 9.37964L8.89957 9.3824C8.94644 9.38281 8.96584 9.44257 8.92816 9.47041L8.63701 9.68544L8.74623 10.0305C8.76041 10.0752 8.70949 10.1122 8.67135 10.0849L8.37692 9.87441L8.08248 10.0849C8.04434 10.1121 7.99354 10.0752 8.0076 10.0305L8.11682 9.68544L7.82567 9.47041C7.78799 9.44263 7.80739 9.38281 7.85426 9.3824L8.2162 9.37964L8.33069 9.03628C8.34551 8.99181 8.40832 8.99181 8.42315 9.03628Z" fill="#F5F5F5"/>
<path d="M8.42315 10.8326L8.53764 11.176L8.89957 11.1787C8.94644 11.1791 8.96584 11.2388 8.92816 11.2667L8.63701 11.4818L8.74623 11.8268C8.76041 11.8715 8.70949 11.9085 8.67135 11.8812L8.37692 11.6707L8.08248 11.8812C8.04434 11.9084 7.99354 11.8715 8.0076 11.8268L8.11682 11.4818L7.82567 11.2667C7.78799 11.2388 7.80739 11.1791 7.85426 11.1787L8.2162 11.176L8.33069 10.8326C8.34551 10.7881 8.40832 10.7881 8.42315 10.8326Z" fill="#F5F5F5"/>
<path d="M8.42315 12.6287L8.53764 12.9721L8.89957 12.9748C8.94644 12.9752 8.96584 13.0349 8.92816 13.0628L8.63701 13.2779L8.74623 13.6229C8.76041 13.6676 8.70949 13.7046 8.67135 13.6773L8.37692 13.4668L8.08248 13.6773C8.04434 13.7046 7.99354 13.6676 8.0076 13.6229L8.11682 13.2779L7.82567 13.0628C7.78799 13.0349 7.80739 12.9752 7.85426 12.9748L8.2162 12.9721L8.33069 12.6287C8.34551 12.5843 8.40832 12.5843 8.42315 12.6287Z" fill="#F5F5F5"/>
<path d="M9.81737 6.35957L9.93186 6.70293L10.2938 6.70569C10.3407 6.7061 10.3601 6.76586 10.3224 6.79369L10.0312 7.00867L10.1405 7.35373C10.1546 7.39838 10.1037 7.43541 10.0656 7.40811L9.77114 7.19764L9.47671 7.40811C9.43857 7.43541 9.38777 7.39838 9.40183 7.35373L9.51105 7.00867L9.2199 6.79369C9.18222 6.7658 9.20161 6.70604 9.24849 6.70569L9.61042 6.70293L9.72491 6.35957C9.73962 6.3151 9.80255 6.3151 9.81737 6.35957Z" fill="#F5F5F5"/>
<path d="M9.81737 8.15567L9.93186 8.49903L10.2938 8.50178C10.3407 8.50219 10.3601 8.5619 10.3224 8.58979L10.0312 8.80483L10.1405 9.14989C10.1546 9.19454 10.1037 9.23157 10.0656 9.20426L9.77114 8.9938L9.47671 9.20426C9.43857 9.23151 9.38777 9.19454 9.40183 9.14989L9.51105 8.80483L9.2199 8.58979C9.18222 8.5619 9.20161 8.50219 9.24849 8.50178L9.61042 8.49903L9.72491 8.15567C9.73962 8.11126 9.80255 8.11126 9.81737 8.15567Z" fill="#F5F5F5"/>
<path d="M9.81737 9.95181L9.93186 10.2952L10.2938 10.2979C10.3407 10.2983 10.3601 10.358 10.3224 10.3859L10.0312 10.601L10.1405 10.946C10.1546 10.9907 10.1037 11.0277 10.0656 11.0004L9.77114 10.7899L9.47671 11.0004C9.43857 11.0277 9.38777 10.9907 9.40183 10.946L9.51105 10.601L9.2199 10.3859C9.18222 10.358 9.20161 10.2983 9.24849 10.2979L9.61042 10.2952L9.72491 9.95181C9.73962 9.90734 9.80255 9.90734 9.81737 9.95181Z" fill="#F5F5F5"/>
<path d="M9.81737 11.7481L9.93186 12.0915L10.2938 12.0943C10.3407 12.0947 10.3601 12.1544 10.3224 12.1823L10.0312 12.3973L10.1405 12.7424C10.1546 12.787 10.1037 12.824 10.0656 12.7967L9.77114 12.5863L9.47671 12.7967C9.43857 12.824 9.38777 12.787 9.40183 12.7424L9.51105 12.3973L9.2199 12.1823C9.18222 12.1545 9.20161 12.0947 9.24849 12.0943L9.61042 12.0915L9.72491 11.7481C9.73962 11.7037 9.80255 11.7037 9.81737 11.7481Z" fill="#F5F5F5"/>
<path d="M9.81737 13.5442L9.93186 13.8876L10.2938 13.8903C10.3407 13.8908 10.3601 13.9505 10.3224 13.9784L10.0312 14.1934L10.1405 14.5385C10.1546 14.5831 10.1037 14.6201 10.0656 14.5928L9.77114 14.3824L9.47671 14.5928C9.43857 14.6201 9.38777 14.5831 9.40183 14.5385L9.51105 14.1934L9.2199 13.9784C9.18222 13.9505 9.20161 13.8908 9.24849 13.8903L9.61042 13.8876L9.72491 13.5442C9.73962 13.4998 9.80255 13.4998 9.81737 13.5442Z" fill="#F5F5F5"/>
<path d="M11.2114 7.24014L11.3259 7.5835L11.6878 7.58626C11.7347 7.58667 11.7541 7.64644 11.7164 7.67427L11.4253 7.88931L11.5345 8.23437C11.5487 8.27902 11.4978 8.31605 11.4596 8.28874L11.1652 8.07827L10.8708 8.28874C10.8326 8.31599 10.7818 8.27902 10.7959 8.23437L10.9051 7.88931L10.6139 7.67427C10.5763 7.64638 10.5957 7.58667 10.6425 7.58626L11.0045 7.5835L11.119 7.24014C11.1337 7.19573 11.1966 7.19573 11.2114 7.24014Z" fill="#F5F5F5"/>
<path d="M11.2114 9.03628L11.3259 9.37964L11.6878 9.3824C11.7347 9.38281 11.7541 9.44257 11.7164 9.47041L11.4253 9.68544L11.5345 10.0305C11.5487 10.0752 11.4978 10.1122 11.4596 10.0849L11.1652 9.87441L10.8708 10.0849C10.8326 10.1121 10.7818 10.0752 10.7959 10.0305L10.9051 9.68544L10.6139 9.47041C10.5763 9.44263 10.5957 9.38281 10.6425 9.3824L11.0045 9.37964L11.119 9.03628C11.1337 8.99181 11.1966 8.99181 11.2114 9.03628Z" fill="#F5F5F5"/>
<path d="M11.2114 10.8326L11.3259 11.176L11.6878 11.1787C11.7347 11.1791 11.7541 11.2388 11.7164 11.2667L11.4253 11.4818L11.5345 11.8268C11.5487 11.8715 11.4978 11.9085 11.4596 11.8812L11.1652 11.6707L10.8708 11.8812C10.8326 11.9084 10.7818 11.8715 10.7959 11.8268L10.9051 11.4818L10.6139 11.2667C10.5763 11.2388 10.5957 11.1791 10.6425 11.1787L11.0045 11.176L11.119 10.8326C11.1337 10.7881 11.1966 10.7881 11.2114 10.8326Z" fill="#F5F5F5"/>
<path d="M11.2114 12.6287L11.3259 12.9721L11.6878 12.9748C11.7347 12.9752 11.7541 13.0349 11.7164 13.0628L11.4253 13.2779L11.5345 13.6229C11.5487 13.6676 11.4978 13.7046 11.4596 13.6773L11.1652 13.4668L10.8708 13.6773C10.8326 13.7046 10.7818 13.6676 10.7959 13.6229L10.9051 13.2779L10.6139 13.0628C10.5763 13.0349 10.5957 12.9752 10.6425 12.9748L11.0045 12.9721L11.119 12.6287C11.1337 12.5843 11.1966 12.5843 11.2114 12.6287Z" fill="#F5F5F5"/>
<path d="M12.6056 6.35957L12.7201 6.70293L13.0821 6.70569C13.1289 6.7061 13.1483 6.76586 13.1107 6.79369L12.8195 7.00867L12.9287 7.35373C12.9429 7.39838 12.892 7.43541 12.8539 7.40811L12.5594 7.19764L12.265 7.40811C12.2268 7.43541 12.176 7.39838 12.1901 7.35373L12.2993 7.00867L12.0082 6.79369C11.9705 6.7658 11.9899 6.70604 12.0368 6.70569L12.3987 6.70293L12.5132 6.35957C12.528 6.3151 12.5908 6.3151 12.6056 6.35957Z" fill="#F5F5F5"/>
<path d="M12.6056 8.15567L12.7201 8.49903L13.0821 8.50178C13.1289 8.50219 13.1483 8.5619 13.1107 8.58979L12.8195 8.80483L12.9287 9.14989C12.9429 9.19454 12.892 9.23157 12.8539 9.20426L12.5594 8.9938L12.265 9.20426C12.2268 9.23151 12.176 9.19454 12.1901 9.14989L12.2993 8.80483L12.0082 8.58979C11.9705 8.5619 11.9899 8.50219 12.0368 8.50178L12.3987 8.49903L12.5132 8.15567C12.528 8.11126 12.5908 8.11126 12.6056 8.15567Z" fill="#F5F5F5"/>
<path d="M12.6056 9.95181L12.7201 10.2952L13.0821 10.2979C13.1289 10.2983 13.1483 10.358 13.1107 10.3859L12.8195 10.601L12.9287 10.946C12.9429 10.9907 12.892 11.0277 12.8539 11.0004L12.5594 10.7899L12.265 11.0004C12.2268 11.0277 12.176 10.9907 12.1901 10.946L12.2993 10.601L12.0082 10.3859C11.9705 10.358 11.9899 10.2983 12.0368 10.2979L12.3987 10.2952L12.5132 9.95181C12.528 9.90734 12.5908 9.90734 12.6056 9.95181Z" fill="#F5F5F5"/>
<path d="M12.6056 11.7481L12.7201 12.0915L13.0821 12.0943C13.1289 12.0947 13.1483 12.1544 13.1107 12.1823L12.8195 12.3973L12.9287 12.7424C12.9429 12.787 12.892 12.824 12.8539 12.7967L12.5594 12.5863L12.265 12.7967C12.2268 12.824 12.176 12.787 12.1901 12.7424L12.2993 12.3973L12.0082 12.1823C11.9705 12.1545 11.9899 12.0947 12.0368 12.0943L12.3987 12.0915L12.5132 11.7481C12.528 11.7037 12.5908 11.7037 12.6056 11.7481Z" fill="#F5F5F5"/>
<path d="M12.6056 13.5442L12.7201 13.8876L13.0821 13.8903C13.1289 13.8908 13.1483 13.9505 13.1107 13.9784L12.8195 14.1934L12.9287 14.5385C12.9429 14.5831 12.892 14.6201 12.8539 14.5928L12.5594 14.3824L12.265 14.5928C12.2268 14.6201 12.176 14.5831 12.1901 14.5385L12.2993 14.1934L12.0082 13.9784C11.9705 13.9505 11.9899 13.8908 12.0368 13.8903L12.3987 13.8876L12.5132 13.5442C12.528 13.4998 12.5908 13.4998 12.6056 13.5442Z" fill="#F5F5F5"/>
</svg>
