<svg width="30" height="30" viewBox="0 0 30 30" fill="none" xmlns="http://www.w3.org/2000/svg">
<path d="M2.5 11.2425C2.49934 10.2578 2.69294 9.28255 3.06971 8.37273C3.44648 7.46291 3.99902 6.63635 4.69569 5.94037C5.39236 5.2444 6.21947 4.69269 7.12966 4.31683C8.03986 3.94097 9.01526 3.74835 10 3.75H20C24.1413 3.75 27.5 7.11875 27.5 11.2425V26.25H10C5.85875 26.25 2.5 22.8812 2.5 18.7575V11.2425ZM25 23.75V11.2425C24.9967 9.91812 24.4686 8.64904 23.5314 7.71327C22.5942 6.77749 21.3244 6.25131 20 6.25H10C9.34356 6.24835 8.69325 6.37631 8.08637 6.62653C7.47949 6.87675 6.92797 7.24431 6.46345 7.70814C5.99893 8.17196 5.63054 8.72293 5.37941 9.32943C5.12827 9.93594 4.99934 10.5861 5 11.2425V18.7575C5.00331 20.0819 5.53139 21.351 6.46857 22.2867C7.40575 23.2225 8.67562 23.7487 10 23.75H25ZM17.5 13.75H20V16.25H17.5V13.75ZM10 13.75H12.5V16.25H10V13.75Z" fill="#F5F5F5"/>
</svg>
